<?xml version="1.0" encoding="UTF-8"?>
<svg version="1.1" xmlns="http://www.w3.org/2000/svg" width="316" height="316">
<path d="M0 0 C104.28 0 208.56 0 316 0 C316 104.28 316 208.56 316 316 C211.72 316 107.44 316 0 316 C0 211.72 0 107.44 0 0 Z " fill="#FEFEFD" transform="translate(0,0)"/>
<path d="M0 0 C4.92282852 1.21652807 9.75300255 2.49539424 14.578125 4.06640625 C16.42349854 4.66473267 16.42349854 4.66473267 18.30615234 5.27514648 C19.62077829 5.70423351 20.93539394 6.13335207 22.25 6.5625 C23.6179064 7.00688402 24.98590923 7.45097134 26.35400391 7.89477539 C28.46191825 8.5786365 30.56976048 9.26271225 32.67727661 9.94779968 C41.05230855 12.66997707 49.43900856 15.35562162 57.82519531 18.04321289 C58.90124023 18.38860107 59.97728516 18.73398926 61.0859375 19.08984375 C62.0145459 19.38753662 62.9431543 19.68522949 63.89990234 19.99194336 C67.94053145 21.30583197 71.96915789 22.65638596 76 24 C76 79.44 76 134.88 76 192 C63.62775674 188.62575184 63.62775674 188.62575184 58.3125 186.8359375 C57.13179932 186.44019531 55.95109863 186.04445312 54.73461914 185.63671875 C53.50219482 185.22035156 52.26977051 184.80398437 51 184.375 C49.69208884 183.93586143 48.38406267 183.49706527 47.07592773 183.05859375 C44.3885005 182.15739552 41.70158446 181.25469979 39.01513672 180.35058594 C32.7002752 178.22568446 26.3817112 176.11192854 20.0625 174 C18.95068359 173.62665527 17.83886719 173.25331055 16.69335938 172.86865234 C10.28651982 170.72533868 10.28651982 170.72533868 3.80859375 168.8125 C1 168 1 168 0 167 C-0.096937 164.84840274 -0.12186783 162.69355889 -0.12025452 160.53977966 C-0.12153615 159.51556816 -0.12153615 159.51556816 -0.12284368 158.47066551 C-0.12450043 156.16588309 -0.11897397 153.86117228 -0.11352539 151.55639648 C-0.11324353 149.91094972 -0.11340122 148.26550284 -0.1139679 146.62005615 C-0.11425593 142.13884241 -0.10835821 137.65765519 -0.10139394 133.17644763 C-0.09516142 128.49857895 -0.09455668 123.82070972 -0.09336853 119.14283752 C-0.09025491 110.27824832 -0.08204111 101.41367138 -0.07201904 92.54908758 C-0.06085885 82.45977798 -0.05534769 72.3704678 -0.05032361 62.28115356 C-0.03985852 41.52076218 -0.02225849 20.76038186 0 0 Z " fill="#23628D" transform="translate(51,53)"/>
<path d="M0 0 C0 55.11 0 110.22 0 167 C-11.31843369 170.77281123 -22.40184705 174.46219362 -33.8203125 177.75390625 C-38.27204584 179.05872464 -42.66714458 180.51781249 -47.0625 182 C-53.00703189 184.00327363 -58.95730215 185.98039228 -64.9375 187.875 C-65.60595947 188.09027344 -66.27441895 188.30554688 -66.96313477 188.52734375 C-69.76967047 189.40942912 -72.03666461 190 -75 190 C-75 134.89 -75 79.78 -75 23 C-67.06317411 20.16541932 -59.30604716 17.41804313 -51.26855469 14.99169922 C-45.53207497 13.25121665 -39.8310258 11.3998868 -34.125 9.5625 C-32.90353271 9.17070557 -31.68206543 8.77891113 -30.42358398 8.37524414 C-25.27881485 6.72101826 -20.13734941 5.06378132 -15.02734375 3.3046875 C-13.99359619 2.9497522 -13.99359619 2.9497522 -12.93896484 2.58764648 C-11.21847215 1.99154031 -9.50161813 1.38495898 -7.78515625 0.77734375 C-5 0 -5 0 0 0 Z " fill="#D35401" transform="translate(266,54)"/>
<path d="M0 0 C0.99 0.66 1.98 1.32 3 2 C2.67 2.99 2.34 3.98 2 5 C5.3 5 8.6 5 12 5 C12 54.83 12 104.66 12 156 C-5.82 156 -23.64 156 -42 156 C-42 106.17 -42 56.34 -42 5 C-37.71 5 -33.42 5 -29 5 C-29 4.01 -29 3.02 -29 2 C-23.25 1.875 -23.25 1.875 -21 3 C-18.91761534 2.97663986 -18.91761534 2.97663986 -16.625 2.6875 C-15.85414063 2.60886719 -15.08328125 2.53023438 -14.2890625 2.44921875 C-11.9742255 2.10203229 -11.9742255 2.10203229 -9.96484375 0.97265625 C-6.60252425 -0.69179217 -3.71454602 -0.23584419 0 0 Z " fill="#FEFDFC" transform="translate(174,106)"/>
<path d="M0 0 C1.22644557 0.00138269 1.22644557 0.00138269 2.47766781 0.00279331 C3.88068645 0.00073132 3.88068645 0.00073132 5.31204891 -0.00137234 C6.34638561 0.00222294 7.38072231 0.00581821 8.44640255 0.00952244 C9.52919491 0.00937641 10.61198727 0.00923038 11.72759151 0.00907993 C15.32585778 0.0097796 18.92407301 0.0175745 22.52233028 0.02539158 C25.00954822 0.02725557 27.49676652 0.02867956 29.98398495 0.0296793 C35.87363594 0.03311433 41.76326794 0.04100506 47.65291113 0.05102879 C55.01367777 0.06328536 62.37444668 0.06866992 69.73522091 0.0742197 C82.8712983 0.08495968 96.00735934 0.1020379 109.14342403 0.12304783 C109.14342403 4.41304783 109.14342403 8.70304783 109.14342403 13.12304783 C101.88342403 13.12304783 94.62342403 13.12304783 87.14342403 13.12304783 C87.14342403 19.06304783 87.14342403 25.00304783 87.14342403 31.12304783 C59.03662792 46.12304783 59.03662792 46.12304783 55.14342403 46.12304783 C55.14342403 35.23304783 55.14342403 24.34304783 55.14342403 13.12304783 C54.15342403 13.12304783 53.16342403 13.12304783 52.14342403 13.12304783 C52.14342403 24.01304783 52.14342403 34.90304783 52.14342403 46.12304783 C44.26933454 43.87330797 44.26933454 43.87330797 41.24108028 42.31836033 C40.57785763 41.98191502 39.91463497 41.6454697 39.23131466 41.29882908 C38.2287463 40.77869236 38.2287463 40.77869236 37.20592403 40.24804783 C36.54141232 39.90902439 35.8769006 39.57000095 35.19225216 39.22070408 C33.92979012 38.57661578 32.66859617 37.93002922 31.40929317 37.27978611 C27.99860918 35.53861374 24.56856012 33.83561587 21.14342403 32.12304783 C21.14342403 25.85304783 21.14342403 19.58304783 21.14342403 13.12304783 C13.22342403 13.12304783 5.30342403 13.12304783 -2.85657597 13.12304783 C-2.85657597 0.18932458 -2.85657597 0.18932458 0 0 Z " fill="#3B6E91" transform="translate(105.85657596588135,264.8769521713257)"/>
<path d="M0 0 C3 1 3 1 4.75 3.5625 C6.08571514 7.23571663 5.75949483 9.19671547 5.0625 12.96484375 C4.94877158 16.66812537 6.95378727 19.02369057 9 22 C10.95928381 15.98660063 12.41632611 10.30367803 13 4 C15.33352413 7.50028619 15.65580475 10.49742308 16.125 14.5625 C16.21136719 15.24763672 16.29773438 15.93277344 16.38671875 16.63867188 C17 21.5984623 17 21.5984623 17 24 C17.66 24 18.32 24 19 24 C19.103125 23.13375 19.20625 22.2675 19.3125 21.375 C20 18 20 18 21.5625 15.1875 C23.24240095 11.46250224 23.13925289 8.9558479 22.8125 4.953125 C22.9053125 3.98632812 22.9053125 3.98632812 23 3 C23.99 2.34 24.98 1.68 26 1 C25.79375 1.721875 25.5875 2.44375 25.375 3.1875 C24.75972548 5.98988283 24.75972548 5.98988283 26 8.375 C28.00771945 13.64526355 25.86203021 18.91045075 24 24 C24.66 24 25.32 24 26 24 C26.25523437 23.31550781 26.51046875 22.63101562 26.7734375 21.92578125 C28.18849108 18.55038274 29.87258566 15.40025962 31.625 12.1875 C31.94984375 11.59001953 32.2746875 10.99253906 32.609375 10.37695312 C33.40379151 8.91662865 34.20155376 7.45812509 35 6 C35.33 6 35.66 6 36 6 C36.05447047 7.41623216 36.09300508 8.83308191 36.125 10.25 C36.14820313 11.03890625 36.17140625 11.8278125 36.1953125 12.640625 C35.98022855 15.23883912 35.21346671 16.72015345 34 19 C33.61250787 21.32495277 33.27017161 23.65851268 33 26 C34.27513763 24.92173635 35.54492569 23.83714481 36.8125 22.75 C37.52019531 22.14671875 38.22789062 21.5434375 38.95703125 20.921875 C42.22922511 17.84363527 43.81253146 15.69129023 45 11.3125 C45.33 10.219375 45.66 9.12625 46 8 C46.99 7.67 47.98 7.34 49 7 C48.69357149 12.82214168 47.75981791 15.84807461 44.14453125 20.390625 C42.64627854 22.49738307 42.23198661 24.44814734 42 27 C42.61875 26.360625 43.2375 25.72125 43.875 25.0625 C46.57988576 22.3654093 49.37305083 19.76978766 52.1875 17.1875 C53.47720703 16.00220703 53.47720703 16.00220703 54.79296875 14.79296875 C57 13 57 13 59 13 C57.70126608 16.54029871 56.15122134 19.47011933 54 22.5625 C52.09937057 25.30415796 50.42409849 27.98063735 49 31 C56.13494212 28.20198348 60.61504268 25.07534626 64.69140625 18.48828125 C66.32922924 16.62556316 67.59184458 16.38184282 70 16 C69.195625 16.86625 68.39125 17.7325 67.5625 18.625 C65.48677039 21.06297606 65.02233632 21.81386404 64.625 25.125 C64 28 64 28 62.46484375 29.08984375 C60.5625 30.0625 60.5625 30.0625 58.69140625 30.84765625 C56.32199372 32.46192114 55.87102272 34.33440784 55 37 C55.48879639 36.64172119 55.97759277 36.28344238 56.48120117 35.91430664 C58.71027086 34.28810198 60.94868214 32.67525432 63.1875 31.0625 C64.34088867 30.21655273 64.34088867 30.21655273 65.51757812 29.35351562 C66.64389648 28.54624023 66.64389648 28.54624023 67.79296875 27.72265625 C68.4789917 27.22515869 69.16501465 26.72766113 69.87182617 26.21508789 C72.24759809 24.85863305 74.30770043 24.39695479 77 24 C75.67425204 27.5795195 73.53157663 29.25362988 70.5859375 31.57421875 C68.36568075 33.57026238 66.81073321 35.8682334 65.17578125 38.3515625 C63.9311337 40.09655009 62.55077536 41.52519923 61 43 C61.928125 42.4121875 61.928125 42.4121875 62.875 41.8125 C65.51018075 40.28409516 68.12535148 38.98687659 70.875 37.6875 C74.98123012 35.67715817 78.16283722 33.41914361 81.4296875 30.234375 C83.24959742 28.80379905 84.74226464 28.41049734 87 28 C86.67 28.99 86.34 29.98 86 31 C85.01 31.33 84.02 31.66 83 32 C81.41490149 33.72458718 80.02446153 35.54950073 78.59765625 37.40625 C76.76353378 39.23588806 75.52542967 39.6072766 73 40 C72.67 41.65 72.34 43.3 72 45 C73.62808594 44.16855469 73.62808594 44.16855469 75.2890625 43.3203125 C76.73426596 42.58832633 78.17958458 41.85656752 79.625 41.125 C80.33785156 40.76019531 81.05070313 40.39539062 81.78515625 40.01953125 C85.78751837 37.99999073 89.68917073 36.2918889 94 35 C94 35.66 94 36.32 94 37 C92.44101062 38.08857866 90.82399356 39.09433668 89.1875 40.0625 C83.84796638 43.31982167 79.30311921 47.05127545 74.703125 51.27734375 C71.12569966 53.55717695 69.16844614 53.71645168 65 53 C62.90531105 51.15655264 61.43111025 49.59751261 59.75 47.4375 C49.40580466 35.32544579 35.64971183 29.9166945 20 28 C2.00936921 27.11378206 -15.64183324 28.45358996 -30.953125 39.04296875 C-33.56214333 41.5374691 -35.19371677 44.29295634 -37.0625 47.375 C-40.40176155 52.72979193 -40.40176155 52.72979193 -43.1015625 53.94921875 C-46.78318834 54.14915723 -48.85090536 53.11788878 -51.6875 50.875 C-53.2312665 48.95572272 -54.75224848 47.01789782 -56.25 45.0625 C-59.44487526 41.10742934 -63.71107823 38.63502383 -68 36 C-62.37940452 34.12646817 -56.13984615 38.4820529 -51 41 C-48.48191349 42.54103717 -46.29828371 44.13948461 -44 46 C-44.42152344 45.52949219 -44.84304687 45.05898438 -45.27734375 44.57421875 C-45.82519531 43.95160156 -46.37304688 43.32898437 -46.9375 42.6875 C-47.48277344 42.07261719 -48.02804688 41.45773438 -48.58984375 40.82421875 C-50 39 -50 39 -51 36 C-52.31252882 35.29325371 -53.65278717 34.63815344 -55 34 C-56.26565117 33.19063509 -57.51480996 32.35513157 -58.75 31.5 C-59.36359375 31.0771875 -59.9771875 30.654375 -60.609375 30.21875 C-61.06828125 29.8165625 -61.5271875 29.414375 -62 29 C-62 28.34 -62 27.68 -62 27 C-54.25531915 27.74468085 -54.25531915 27.74468085 -51 31 C-50.67 31.99 -50.34 32.98 -50 34 C-47.82422337 35.34938604 -45.71387645 36.53851757 -43.4375 37.6875 C-42.82197266 38.00783203 -42.20644531 38.32816406 -41.57226562 38.65820312 C-40.0526445 39.44746371 -38.52688189 40.22487915 -37 41 C-41.37903997 33.63039615 -46.79156005 27.87715955 -53 22 C-45.46817701 22 -37.41301299 29.03807143 -32 34 C-33.41625333 31.57213715 -34.79589822 29.25308621 -36.5625 27.0625 C-38 25 -38 25 -38.8125 21.9375 C-39.77482322 18.70857403 -39.77482322 18.70857403 -43.125 17.125 C-44.07375 16.75375 -45.0225 16.3825 -46 16 C-45.01 15.67 -44.02 15.34 -43 15 C-38.50851559 17.43288739 -36.56732757 19.72112072 -34 24 C-32.04690112 25.40113616 -30.04291182 26.73339467 -28 28 C-26.31916921 29.31543279 -24.6475884 30.64316249 -23 32 C-25.49378577 24.97339186 -28.62518092 19.03725032 -33 13 C-30 13 -30 13 -28.46606445 14.19335938 C-27.937146 14.73798828 -27.40822754 15.28261719 -26.86328125 15.84375 C-26.28642578 16.43027344 -25.70957031 17.01679688 -25.11523438 17.62109375 C-24.52033203 18.24113281 -23.92542969 18.86117188 -23.3125 19.5 C-22.70599609 20.12003906 -22.09949219 20.74007813 -21.47460938 21.37890625 C-19.97626257 22.91264707 -18.48723507 24.45548198 -17 26 C-17.30987617 23.74963714 -17.62299818 21.49972106 -17.9375 19.25 C-18.11152344 17.99703125 -18.28554687 16.7440625 -18.46484375 15.453125 C-18.96498017 11.65403263 -18.96498017 11.65403263 -20 8 C-20.99 7.67 -21.98 7.34 -23 7 C-22.34 6.67 -21.68 6.34 -21 6 C-18.26460526 7.65563366 -16.30794538 8.92819011 -15.3984375 12.09375 C-15.13152159 13.66384359 -14.86590884 15.23415924 -14.6015625 16.8046875 C-13.64981537 20.2779465 -11.74437065 21.76117131 -9 24 C-8.78567421 17.35590042 -9.48766299 11.46794133 -11 5 C-8.7325269 7.08371087 -7.34184489 8.97964697 -6.02734375 11.7578125 C-5.51397461 12.81935547 -5.51397461 12.81935547 -4.99023438 13.90234375 C-4.64283203 14.63582031 -4.29542969 15.36929687 -3.9375 16.125 C-1.88001251 21.37105649 -1.88001251 21.37105649 2 25 C1.89171875 23.74896484 1.89171875 23.74896484 1.78125 22.47265625 C1.35170107 17.26437546 0.93085972 12.10373346 1 6.875 C1.20423043 3.08564502 1.20423043 3.08564502 0 0 Z " fill="#FF6B0D" transform="translate(147,7)"/>
<path d="M0 0 C36.3 0 72.6 0 110 0 C110 3.63 110 7.26 110 11 C73.7 11 37.4 11 0 11 C0 7.37 0 3.74 0 0 Z " fill="#A54C15" transform="translate(104,266)"/>
<path d="M0 0 C0.99 0.66 1.98 1.32 3 2 C2.67 2.99 2.34 3.98 2 5 C5.3 5 8.6 5 12 5 C12 54.83 12 104.66 12 156 C-5.82 156 -23.64 156 -42 156 C-42 106.17 -42 56.34 -42 5 C-37.71 5 -33.42 5 -29 5 C-29 4.01 -29 3.02 -29 2 C-23.25 1.875 -23.25 1.875 -21 3 C-18.91761534 2.97663986 -18.91761534 2.97663986 -16.625 2.6875 C-15.85414063 2.60886719 -15.08328125 2.53023438 -14.2890625 2.44921875 C-11.9742255 2.10203229 -11.9742255 2.10203229 -9.96484375 0.97265625 C-6.60252425 -0.69179217 -3.71454602 -0.23584419 0 0 Z M-40 7 C-40 55.51 -40 104.02 -40 154 C-23.5 154 -7 154 10 154 C10 105.49 10 56.98 10 7 C-6.5 7 -23 7 -40 7 Z " fill="#6C95B2" transform="translate(174,106)"/>
<path d="M0 0 C5.86481936 0.71714698 11.26675056 2.60278027 16.84765625 4.45703125 C17.89594101 4.80126633 18.94422577 5.1455014 20.02427673 5.50016785 C23.37171675 6.60017933 26.71717715 7.70606839 30.0625 8.8125 C34.44861458 10.25834895 38.83547435 11.70192439 43.22265625 13.14453125 C44.26936996 13.48890228 45.31608368 13.83327332 46.39451599 14.18807983 C61.07365402 19.02042939 61.07365402 19.02042939 76 23 C76 26.96 76 30.92 76 35 C67.66581237 32.85527814 59.57690449 30.20613455 51.46481323 27.35797119 C40.93094469 23.66337205 30.39702938 20.09291646 19.65234375 17.0546875 C1.93984962 11.93984962 1.93984962 11.93984962 0 10 C-0.07205511 8.31391034 -0.08386068 6.62499341 -0.0625 4.9375 C-0.05347656 4.01839844 -0.04445312 3.09929687 -0.03515625 2.15234375 C-0.02355469 1.44207031 -0.01195312 0.73179687 0 0 Z " fill="#296790" transform="translate(51,224)"/>
<path d="M0 0 C0 3.3 0 6.6 0 10 C-7.15082009 13.38245141 -14.36823984 15.79026772 -21.9375 18.0625 C-24.49675034 18.84168513 -27.0554656 19.62238996 -29.61328125 20.40625 C-30.28027039 20.61032974 -30.94725952 20.81440948 -31.63446045 21.02467346 C-36.89220784 22.64097012 -42.12668996 24.32376243 -47.35546875 26.03125 C-48.1302507 26.28402206 -48.90503265 26.53679413 -49.70329285 26.79722595 C-52.76914255 27.79865776 -55.83446961 28.80155224 -58.89718628 29.81253052 C-61.02664187 30.51536182 -63.15771413 31.21309022 -65.2890625 31.91015625 C-66.51318848 32.31371338 -67.73731445 32.71727051 -68.99853516 33.13305664 C-72 34 -72 34 -75 34 C-75 30.7 -75 27.4 -75 24 C-63.66421504 19.29128933 -52.03410353 15.59145339 -40.296875 12.02734375 C-36.76179087 10.92577133 -33.25710181 9.75003131 -29.75 8.5625 C-22.71248302 6.19466876 -15.61677678 4.07746687 -8.484375 2.015625 C-1.56923077 0 -1.56923077 0 0 0 Z " fill="#D35709" transform="translate(266,224)"/>
<path d="M0 0 C9.9 0 19.8 0 30 0 C30 6.27 30 12.54 30 19 C26.31334248 20.77260513 22.62571412 22.54313896 18.9375 24.3125 C17.89916016 24.81201172 16.86082031 25.31152344 15.79101562 25.82617188 C14.26831055 26.55610352 14.26831055 26.55610352 12.71484375 27.30078125 C11.32446899 27.96847534 11.32446899 27.96847534 9.90600586 28.6496582 C6.63546165 30.16939104 3.31479525 31.57937346 0 33 C0 22.11 0 11.22 0 0 Z " fill="#D35402" transform="translate(162,278)"/>
<path d="M0 0 C0.66 0.33 1.32 0.66 2 1 C1.67 3.64 1.34 6.28 1 9 C2.175625 9.433125 2.175625 9.433125 3.375 9.875 C6 11 6 11 8 13 C7.86890674 17.85045058 5.37769666 19.79551855 2 23 C2 23.66 2 24.32 2 25 C2.804375 25.474375 3.60875 25.94875 4.4375 26.4375 C7 28 7 28 8 31 C7.41196203 27.97580475 6.77321882 24.98241547 6 22 C7.65 21.01 9.3 20.02 11 19 C10.67 16.36 10.34 13.72 10 11 C11.15518918 11.90484792 12.29885406 12.8244206 13.4375 13.75 C14.07558594 14.26046875 14.71367187 14.7709375 15.37109375 15.296875 C17.18810554 17.19667629 17.60423197 18.43586908 18 21 C17.01 21.66 16.02 22.32 15 23 C14.63637182 25.20725073 14.63637182 25.20725073 14.8125 27.625 C14.83957031 28.44226563 14.86664063 29.25953125 14.89453125 30.1015625 C14.94673828 31.04128906 14.94673828 31.04128906 15 32 C8.25612709 35.94763292 0.63216466 36.04561479 -7 35 C-10.4453125 33.25 -10.4453125 33.25 -13 31 C-13.55078125 28.81640625 -13.55078125 28.81640625 -13.3125 26.5625 C-13.07021593 23.14798496 -13.13514916 20.35129699 -14 17 C-13.38125 16.5875 -12.7625 16.175 -12.125 15.75 C-9.93231719 13.94426121 -9.07211583 12.5909466 -8 10 C-6.9673198 12.78823655 -6.95490707 13.8677274 -7.9375 16.75 C-8.288125 17.4925 -8.63875 18.235 -9 19 C-8.360625 19.2475 -7.72125 19.495 -7.0625 19.75 C-5 21 -5 21 -4.125 23 C-4.063125 23.99 -4.063125 23.99 -4 25 C-4.66 25.66 -5.32 26.32 -6 27 C-6.6425235 29.06874034 -6.6425235 29.06874034 -7 31 C-6.34 31 -5.68 31 -5 31 C-4.9175 30.278125 -4.835 29.55625 -4.75 28.8125 C-4 26 -4 26 -1.9375 23.4375 C0.41482942 20.99707278 0.41482942 20.99707278 0 17 C-1.98 16.01 -3.96 15.02 -6 14 C-5.54132147 9.06920585 -4.20914669 6.71057585 -1 3 C-0.67 2.01 -0.34 1.02 0 0 Z " fill="#FF802C" transform="translate(160,56)"/>
<path d="M0 0 C12.87 0 25.74 0 39 0 C38.67 1.98 38.34 3.96 38 6 C35.03 6 32.06 6 29 6 C29.99 5.67 30.98 5.34 32 5 C32 4.34 32 3.68 32 3 C28.7 2.34 25.4 1.68 22 1 C22 1.99 22 2.98 22 4 C23.32 4.66 24.64 5.32 26 6 C24.68 6.33 23.36 6.66 22 7 C27.61 7.33 33.22 7.66 39 8 C39 7.01 39 6.02 39 5 C39.99 5 40.98 5 42 5 C42 4.34 42 3.68 42 3 C41.01 2.67 40.02 2.34 39 2 C40.65614657 1.61781233 42.32457024 1.28604898 44 1 C45 2 45 2 45.0625 4.5625 C45.041875 5.366875 45.02125 6.17125 45 7 C45.66 7 46.32 7 47 7 C47 5.35 47 3.7 47 2 C47.66 2 48.32 2 49 2 C49.495 4.475 49.495 4.475 50 7 C60.89 7.495 60.89 7.495 72 8 C72 8.33 72 8.66 72 9 C56.43186888 10.05921088 40.9115333 10.11841051 25.3125 10.0625 C22.84570404 10.05747069 20.37890708 10.05291033 17.91210938 10.04882812 C11.94138093 10.03794576 5.97070193 10.02076155 0 10 C0 6.7 0 3.4 0 0 Z " fill="#D35300" transform="translate(105,267)"/>
<path d="M0 0 C1.98 0 3.96 0 6 0 C5.67 0.99 5.34 1.98 5 3 C9.29 3 13.58 3 18 3 C17.34 4.32 16.68 5.64 16 7 C16 8.32 16 9.64 16 11 C18.89186786 12.33304698 18.89186786 12.33304698 21.1875 11.0625 C21.785625 10.711875 22.38375 10.36125 23 10 C23 9.01 23 8.02 23 7 C23.66 7 24.32 7 25 7 C24.9375 9.3125 24.9375 9.3125 24 12 C18.44292455 15.26176168 12.30423719 16.03099428 6 17 C12.75505602 20.24558406 12.75505602 20.24558406 20 22 C20 22.33 20 22.66 20 23 C13.50946664 22.70564475 9.48915537 21.44417592 4 18 C0.7911014 16.99636576 -2.48845654 16.64407593 -5.8125 16.1875 C-11.07253188 15.3440922 -14.61921974 13.98689563 -19 11 C-18.67 10.01 -18.34 9.02 -18 8 C-17.5875 8.474375 -17.175 8.94875 -16.75 9.4375 C-14.817815 11.16266518 -13.51807725 11.56584875 -11 12 C-10.34 10.68 -9.68 9.36 -9 8 C-9.99 7.01 -10.98 6.02 -12 5 C-11.67 4.34 -11.34 3.68 -11 3 C-7.04 3 -3.08 3 1 3 C0.67 2.01 0.34 1.02 0 0 Z " fill="#90B0C5" transform="translate(156,236)"/>
<path d="M0 0 C4.29 0 8.58 0 13 0 C13 0.66 13 1.32 13 2 C9.37 2 5.74 2 2 2 C2 50.84 2 99.68 2 150 C1.34 150 0.68 150 0 150 C0 100.5 0 51 0 0 Z " fill="#6A95B2" transform="translate(132,111)"/>
<path d="M0 0 C0.70837509 0.00718552 1.41675018 0.01437103 2.14659119 0.02177429 C3.23749306 0.02246162 3.23749306 0.02246162 4.35043335 0.02316284 C5.88788993 0.02618468 7.42534346 0.03406899 8.9627533 0.0464325 C11.32427229 0.06469731 13.68539954 0.06694214 16.04698181 0.06669617 C17.53852168 0.07161101 19.03005888 0.07743918 20.52159119 0.08427429 C21.23199051 0.08538712 21.94238983 0.08649994 22.67431641 0.08764648 C27.65163129 0.13618939 27.65163129 0.13618939 28.76768494 1.25224304 C28.48038438 3.5916904 28.14831714 5.92615734 27.76768494 8.25224304 C26.88725525 8.21743835 26.00682556 8.18263367 25.09971619 8.14677429 C23.35754822 8.10616882 23.35754822 8.10616882 21.58018494 8.06474304 C20.43163025 8.02993835 19.28307556 7.99513367 18.09971619 7.95927429 C14.75560065 8.00588379 14.75560065 8.00588379 12.25205994 9.77958679 C8.97341451 11.72306058 6.95549674 11.40204453 3.20518494 11.00224304 C2.09014587 10.89396179 0.97510681 10.78568054 -0.17372131 10.67411804 C-2.6044844 10.33884038 -4.87669018 9.92034203 -7.23231506 9.25224304 C-7.35731506 5.87724304 -7.35731506 5.87724304 -7.23231506 2.25224304 C-4.76324539 -0.21682664 -3.36957737 0.01577186 0 0 Z " fill="#EE630B" transform="translate(150.23231506347656,94.74775695800781)"/>
<path d="M0 0 C0 3.3 0 6.6 0 10 C-10.16652789 14.77518734 -10.16652789 14.77518734 -15 15 C-15.66 14.649375 -16.32 14.29875 -17 13.9375 C-19.10512745 12.68626169 -19.10512745 12.68626169 -21.9375 13.8125 C-22.948125 14.204375 -23.95875 14.59625 -25 15 C-26.66088045 15.36106097 -28.32618981 15.70462173 -30 16 C-30.66 14.35 -31.32 12.7 -32 11 C-28.12315913 9.80712589 -25.08378077 9 -21 9 C-21 9.66 -21 10.32 -21 11 C-20.34 10.67 -19.68 10.34 -19 10 C-18.79375 9.21625 -18.5875 8.4325 -18.375 7.625 C-16.55257815 4.14583101 -14.79093766 3.7864618 -11.16796875 2.625 C-10.45253906 2.41875 -9.73710937 2.2125 -9 2 C-8.33613281 1.79375 -7.67226563 1.5875 -6.98828125 1.375 C-2.43359375 0 -2.43359375 0 0 0 Z " fill="#D25507" transform="translate(266,224)"/>
<path d="M0 0 C3.37705625 0.53725895 6.696686 1.11064623 10 2 C9.67 2.66 9.34 3.32 9 4 C9.66 4 10.32 4 11 4 C11.33 3.67 11.66 3.34 12 3 C19.0317965 3.38713594 24.98787055 5.12655879 31.5625 7.5625 C32.47580078 7.89185547 33.38910156 8.22121094 34.33007812 8.56054688 C36.55674182 9.36494371 38.77972744 10.17816299 41 11 C39.35 12.32 37.7 13.64 36 15 C36.495 15.99 36.495 15.99 37 17 C34.03824877 16.38722388 32.61941217 15.74627478 30 14 C29.01 14.33 28.02 14.66 27 15 C24.3125 14.0625 24.3125 14.0625 22 13 C22 12.01 22 11.02 22 10 C21.29875 10.20625 20.5975 10.4125 19.875 10.625 C16.3532239 11.0843621 14.30054731 10.23770524 11 9 C10.21625 8.855625 9.4325 8.71125 8.625 8.5625 C4.91437554 7.76736619 1.53495346 6.37803271 -2 5 C-1.34 3.35 -0.68 1.7 0 0 Z " fill="#23628C" transform="translate(67,231)"/>
<path d="M0 0 C0 0.99 0 1.98 0 3 C-0.90621094 3.25394531 -1.81242187 3.50789062 -2.74609375 3.76953125 C-3.96425781 4.11371094 -5.18242187 4.45789063 -6.4375 4.8125 C-7.63246094 5.14894531 -8.82742187 5.48539063 -10.05859375 5.83203125 C-13.62886873 6.86622362 -17.14655182 8.03352748 -20.66821289 9.22143555 C-25.38884457 10.79761547 -30.14538525 12.26250239 -34.89453125 13.75 C-41.87658196 15.9440323 -48.81379178 18.25969697 -55.74609375 20.60546875 C-58.09179688 21.39648438 -58.09179688 21.39648438 -60.4375 22.1875 C-61.23865234 22.46013672 -62.03980469 22.73277344 -62.86523438 23.01367188 C-63.63029297 23.27083984 -64.39535156 23.52800781 -65.18359375 23.79296875 C-66.21311157 24.14137817 -66.21311157 24.14137817 -67.26342773 24.49682617 C-69 25 -69 25 -71 25 C-70.80175781 23.1184082 -70.80175781 23.1184082 -70 21 C-67.92480469 19.92260742 -67.92480469 19.92260742 -65.171875 19.10546875 C-64.15448242 18.79319336 -63.13708984 18.48091797 -62.08886719 18.15917969 C-60.98704102 17.83852539 -59.88521484 17.51787109 -58.75 17.1875 C-56.45793937 16.48957377 -54.16627856 15.79033325 -51.875 15.08984375 C-50.72 14.74163574 -49.565 14.39342773 -48.375 14.03466797 C-43.46880791 12.53058506 -38.60978073 10.89673598 -33.75 9.25 C-27.10875622 7.01740373 -20.45674644 4.86347 -13.74609375 2.84765625 C-11.0761107 2.02349363 -8.44773518 1.11586879 -5.8125 0.1875 C-2 -1 -2 -1 0 0 Z " fill="#FBEFE8" transform="translate(264,222)"/>
<path d="M0 0 C6.93 0 13.86 0 21 0 C21 2.97 21 5.94 21 9 C11.1 9 1.2 9 -9 9 C-7.68 8.01 -6.36 7.02 -5 6 C-4.34 5.34 -3.68 4.68 -3 4 C-3.33 3.34 -3.66 2.68 -4 2 C-2.68 2 -1.36 2 0 2 C0 1.34 0 0.68 0 0 Z " fill="#D45400" transform="translate(192,267)"/>
<path d="M0 0 C1.34888732 0.00015905 2.69778075 0.00584927 4.04663086 0.01586914 C5.10991859 0.01799156 5.10991859 0.01799156 6.19468689 0.02015686 C8.46699173 0.02577096 10.73919936 0.03832576 13.01147461 0.05102539 C14.54858257 0.05603858 16.08569206 0.0606018 17.62280273 0.06469727 C21.39823103 0.07574497 25.17358632 0.09301898 28.94897461 0.11352539 C28.61897461 2.09352539 28.28897461 4.07352539 27.94897461 6.11352539 C26.62897461 4.79352539 25.30897461 3.47352539 23.94897461 2.11352539 C23.28897461 2.77352539 22.62897461 3.43352539 21.94897461 4.11352539 C21.94897461 3.12352539 21.94897461 2.13352539 21.94897461 1.11352539 C21.28897461 1.11352539 20.62897461 1.11352539 19.94897461 1.11352539 C19.94897461 2.76352539 19.94897461 4.41352539 19.94897461 6.11352539 C16.97897461 6.11352539 14.00897461 6.11352539 10.94897461 6.11352539 C11.93897461 5.78352539 12.92897461 5.45352539 13.94897461 5.11352539 C13.94897461 4.45352539 13.94897461 3.79352539 13.94897461 3.11352539 C12.95897461 2.78352539 11.96897461 2.45352539 10.94897461 2.11352539 C10.61897461 1.78352539 10.28897461 1.45352539 9.94897461 1.11352539 C9.94897461 3.09352539 9.94897461 5.07352539 9.94897461 7.11352539 C9.28897461 6.78352539 8.62897461 6.45352539 7.94897461 6.11352539 C7.94897461 4.79352539 7.94897461 3.47352539 7.94897461 2.11352539 C5.30897461 2.11352539 2.66897461 2.11352539 -0.05102539 2.11352539 C-0.05102539 3.10352539 -0.05102539 4.09352539 -0.05102539 5.11352539 C-1.04102539 5.11352539 -2.03102539 5.11352539 -3.05102539 5.11352539 C-3.05102539 6.10352539 -3.05102539 7.09352539 -3.05102539 8.11352539 C-14.57266548 8.29803564 -14.57266548 8.29803564 -20.05102539 7.11352539 C-19.72102539 6.45352539 -19.39102539 5.79352539 -19.05102539 5.11352539 C-19.38102539 3.79352539 -19.71102539 2.47352539 -20.05102539 1.11352539 C-16.75102539 1.11352539 -13.45102539 1.11352539 -10.05102539 1.11352539 C-9.72102539 2.76352539 -9.39102539 4.41352539 -9.05102539 6.11352539 C-9.05102539 4.46352539 -9.05102539 2.81352539 -9.05102539 1.11352539 C-8.72102539 1.11352539 -8.39102539 1.11352539 -8.05102539 1.11352539 C-8.05102539 2.76352539 -8.05102539 4.41352539 -8.05102539 6.11352539 C-6.73102539 6.11352539 -5.41102539 6.11352539 -4.05102539 6.11352539 C-4.07165039 5.30915039 -4.09227539 4.50477539 -4.11352539 3.67602539 C-4.02241214 -0.05961807 -3.78825852 0.14095705 0 0 Z " fill="#CA4F00" transform="translate(147.051025390625,266.886474609375)"/>
<path d="M0 0 C-0.875 5.875 -0.875 5.875 -2 7 C-8.35858984 7.42522451 -14.0254055 7.36204899 -20 5 C-22.32694964 4.62468554 -24.65976685 4.28082798 -27 4 C-27 2.68 -27 1.36 -27 0 C-8.53125 -1.75 -8.53125 -1.75 0 0 Z " fill="#EE660F" transform="translate(174,117)"/>
<path d="M0 0 C0.99 0.66 1.98 1.32 3 2 C2.34 3.65 1.68 5.3 1 7 C-3.11149887 7.16728213 -7.22319806 7.32787468 -11.33520508 7.48217773 C-12.73501681 7.53566026 -14.13475904 7.59099434 -15.53442383 7.64819336 C-17.5422896 7.72992949 -19.55044187 7.80453025 -21.55859375 7.87890625 C-23.37315063 7.94960327 -23.37315063 7.94960327 -25.22436523 8.02172852 C-28 8 -28 8 -29 7 C-29.04063832 5.33382885 -29.042721 3.66611905 -29 2 C-23.25 1.875 -23.25 1.875 -21 3 C-18.91761534 2.97663986 -18.91761534 2.97663986 -16.625 2.6875 C-15.46871094 2.56955078 -15.46871094 2.56955078 -14.2890625 2.44921875 C-11.9742255 2.10203229 -11.9742255 2.10203229 -9.96484375 0.97265625 C-6.60252425 -0.69179217 -3.71454602 -0.23584419 0 0 Z " fill="#ED6109" transform="translate(174,106)"/>
<path d="M0 0 C2.91706203 0.30911254 5.8336109 0.62215425 8.75 0.9375 C9.575 1.02451172 10.4 1.11152344 11.25 1.20117188 C12.04921875 1.28818359 12.8484375 1.37519531 13.671875 1.46484375 C14.4050293 1.543396 15.13818359 1.62194824 15.89355469 1.70288086 C17.98147994 1.9973877 19.96552768 2.45117496 22 3 C22.042721 4.66611905 22.04063832 6.33382885 22 8 C19.96621098 10.03378902 16.02831003 9.27581457 13.25 9.3125 C12.53328125 9.34150391 11.8165625 9.37050781 11.078125 9.40039062 C7.43510721 9.44391933 5.17274651 9.09778526 1.984375 7.29296875 C0 5 0 5 -0.3125 2.25 C-0.209375 1.5075 -0.10625 0.765 0 0 Z " fill="#EE640C" transform="translate(149,125)"/>
<path d="M0 0 C4.47667169 0.92232934 8.7347354 2.19229174 13.07421875 3.61328125 C13.9041333 3.88027832 14.73404785 4.14727539 15.58911133 4.42236328 C18.02402401 5.20809333 20.45596272 6.00229426 22.88671875 6.80078125 C23.5621875 7.02266113 24.23765625 7.24454102 24.93359375 7.47314453 C28.25614152 8.56815436 31.57390635 9.67667325 34.88671875 10.80078125 C34.55671875 11.79078125 34.22671875 12.78078125 33.88671875 13.80078125 C25.30879631 12.13311812 17.11123723 9.3942941 8.82421875 6.67578125 C7.37186937 6.20274235 5.91939631 5.73008299 4.46679688 5.2578125 C0.9386675 4.10984118 -2.58776027 2.95674197 -6.11328125 1.80078125 C-3.11328125 -0.19921875 -3.11328125 -0.19921875 0 0 Z " fill="#E6EDF1" transform="translate(63.11328125,224.19921875)"/>
<path d="M0 0 C2.875 2 2.875 2 5 4 C3.61725283 7.34163899 2.20955991 9.25766748 -1 11 C-5.39710202 10.88725379 -7.78658035 8.84617169 -11 6 C-9.14695079 0.44085238 -5.63975915 -0.80567988 0 0 Z " fill="#F7F9FB" transform="translate(162,240)"/>
<path d="M0 0 C0.75 2.25 0.75 2.25 1 5 C-0.59375 7.1875 -0.59375 7.1875 -3 9 C-6.015625 9.171875 -6.015625 9.171875 -9.25 8.75 C-10.32765625 8.62109375 -11.4053125 8.4921875 -12.515625 8.359375 C-13.33546875 8.24078125 -14.1553125 8.1221875 -15 8 C-13.40625 3.2265625 -13.40625 3.2265625 -9.75 1.1875 C-6.21568043 0.0682988 -3.66730581 -0.26833945 0 0 Z " fill="#D1DEE7" transform="translate(176,231)"/>
<path d="M0 0 C5.29567977 -0.52956798 9.78681984 0.74207548 14 4 C14.73046875 6.140625 14.73046875 6.140625 15 8 C13.08700862 8.27672202 11.16922064 8.52042815 9.25 8.75 C8.18265625 8.88921875 7.1153125 9.0284375 6.015625 9.171875 C3 9 3 9 0.59375 7.1875 C-1 5 -1 5 -0.75 2.25 C-0.5025 1.5075 -0.255 0.765 0 0 Z " fill="#D2DFE7" transform="translate(142,231)"/>
<path d="M0 0 C1.32 0 2.64 0 4 0 C4.12375 0.639375 4.2475 1.27875 4.375 1.9375 C4.58125 2.618125 4.7875 3.29875 5 4 C5.66 4.33 6.32 4.66 7 5 C5.43840941 5.48212214 3.87568072 5.96055873 2.3125 6.4375 C1.44238281 6.70433594 0.57226562 6.97117188 -0.32421875 7.24609375 C-2.87025921 7.96344529 -5.4003423 8.517541 -8 9 C-8 9.66 -8 10.32 -8 11 C-9.32 11 -10.64 11 -12 11 C-12.33 9.35 -12.66 7.7 -13 6 C-12.14535156 5.65066406 -11.29070312 5.30132812 -10.41015625 4.94140625 C-9.30542969 4.48636719 -8.20070312 4.03132812 -7.0625 3.5625 C-5.96035156 3.11003906 -4.85820312 2.65757812 -3.72265625 2.19140625 C-1.13431084 1.25575392 -1.13431084 1.25575392 0 0 Z " fill="#8F3901" transform="translate(228,236)"/>
<path d="M0 0 C6.93 0.495 6.93 0.495 14 1 C12 5 12 5 8.75 6.75 C5.19465028 7.93511657 2.70317814 8.27096425 -1 8 C-1.625 5.6875 -1.625 5.6875 -2 3 C-1.34 2.01 -0.68 1.02 0 0 Z " fill="#D0DDE6" transform="translate(143,251)"/>
<path d="M0 0 C0.66 0.33 1.32 0.66 2 1 C1.47731534 3.76276177 0.89130413 6.3260876 0 9 C0.639375 9.2475 1.27875 9.495 1.9375 9.75 C4 11 4 11 5 12.875 C5 15 5 15 3.0625 17.25 C2.381875 17.8275 1.70125 18.405 1 19 C1 18.34 1 17.68 1 17 C-0.98 17.99 -0.98 17.99 -3 19 C-4.24518286 16.50963428 -4 14.77378939 -4 12 C-4.29749946 10.32656552 -4.62127066 8.65694085 -5 7 C-4.360625 6.5875 -3.72125 6.175 -3.0625 5.75 C-0.79009069 3.82189513 -0.39803561 2.88575819 0 0 Z " fill="#FF8636" transform="translate(151,66)"/>
<path d="M0 0 C-0.66 1.65 -1.32 3.3 -2 5 C-1.175 5.61875 -0.35 6.2375 0.5 6.875 C1.7375 7.926875 1.7375 7.926875 3 9 C3 9.66 3 10.32 3 11 C-4.68203647 10.76896131 -10.659329 10.57118142 -17 6 C-16.67 5.01 -16.34 4.02 -16 3 C-15.5875 3.474375 -15.175 3.94875 -14.75 4.4375 C-12.78921442 6.18820141 -11.60524408 6.7478796 -9 7 C-6.71271266 5.16116119 -6.71271266 5.16116119 -6.875 2.375 C-6.91625 1.59125 -6.9575 0.8075 -7 0 C-3.86650268 -1.04449911 -3.01031744 -0.93423645 0 0 Z " fill="#A4BED0" transform="translate(154,241)"/>
<path d="M0 0 C3.3 0 6.6 0 10 0 C10.33 1.65 10.66 3.3 11 5 C11 3.35 11 1.7 11 0 C11.33 0 11.66 0 12 0 C12 1.65 12 3.3 12 5 C13.32 5 14.64 5 16 5 C16 3.35 16 1.7 16 0 C17.32 0.33 18.64 0.66 20 1 C20 1.99 20 2.98 20 4 C19.01 4 18.02 4 17 4 C17 4.99 17 5.98 17 7 C5.47835991 7.18451025 5.47835991 7.18451025 0 6 C0.33 5.34 0.66 4.68 1 4 C0.67 2.68 0.34 1.36 0 0 Z " fill="#692901" transform="translate(127,268)"/>
<path d="M0 0 C0.75 3.125 0.75 3.125 1 6 C-5.41923331 5.70887831 -9.62100206 4.54784971 -15 1 C-15 0.67 -15 0.34 -15 0 C-13.25360243 -0.39143394 -11.50264082 -0.76254287 -9.75 -1.125 C-8.77546875 -1.33382812 -7.8009375 -1.54265625 -6.796875 -1.7578125 C-3.73400904 -2.02303274 -2.45576366 -1.81908419 0 0 Z " fill="#E5ECF1" transform="translate(176,252)"/>
<path d="M0 0 C3.34373475 0.55728913 6.03312999 1.35173889 9 3 C8.49047288 7.45836229 6.80244599 9.58451895 4 13 C3.22166466 15.18214568 3.22166466 15.18214568 3 17 C2.34 17 1.68 17 1 17 C1.58803797 13.97580475 2.22678118 10.98241547 3 8 C1.68 7.01 0.36 6.02 -1 5 C-0.67 3.35 -0.34 1.7 0 0 Z " fill="#FFF3EB" transform="translate(152,70)"/>
<path d="M0 0 C3.37705625 0.53725895 6.696686 1.11064623 10 2 C9.67 2.66 9.34 3.32 9 4 C9.66 4 10.32 4 11 4 C12.33783393 4.31478446 13.67203709 4.64587656 15 5 C14.01 5 13.02 5 12 5 C12 5.99 12 6.98 12 8 C12.99 8.33 13.98 8.66 15 9 C8.68477013 9 3.82408438 7.27040577 -2 5 C-1.34 3.35 -0.68 1.7 0 0 Z " fill="#133952" transform="translate(67,231)"/>
<path d="M0 0 C0.99 0.33 1.98 0.66 3 1 C3.6875 3.0625 3.6875 3.0625 4 5 C3.31292969 5.19335938 2.62585938 5.38671875 1.91796875 5.5859375 C1.01691406 5.84632813 0.11585938 6.10671875 -0.8125 6.375 C-2.15248047 6.75785156 -2.15248047 6.75785156 -3.51953125 7.1484375 C-6.20467896 7.95266661 -6.20467896 7.95266661 -9 10 C-11.1875 9.625 -11.1875 9.625 -13 9 C-13.33 7.68 -13.66 6.36 -14 5 C-10.12315913 3.80712589 -7.08378077 3 -3 3 C-3 3.66 -3 4.32 -3 5 C-2.34 4.67 -1.68 4.34 -1 4 C-0.34786708 1.97536745 -0.34786708 1.97536745 0 0 Z " fill="#752E01" transform="translate(248,230)"/>
<path d="M0 0 C5.94 0 11.88 0 18 0 C17.67 1.98 17.34 3.96 17 6 C16.29488281 5.83628906 15.58976563 5.67257813 14.86328125 5.50390625 C11.90341312 4.98300176 9.18938727 4.90133268 6.1875 4.9375 C5.21167969 4.94652344 4.23585937 4.95554688 3.23046875 4.96484375 C2.49441406 4.97644531 1.75835937 4.98804688 1 5 C0.67 3.35 0.34 1.7 0 0 Z " fill="#EE640D" transform="translate(151,137)"/>
<path d="M0 0 C3.01822323 3.38041002 3.01822323 3.38041002 2.9375 6.125 C1.72986449 8.54027102 0.47128202 9.0433747 -2 10 C-1.855625 10.556875 -1.71125 11.11375 -1.5625 11.6875 C-0.97230872 14.11384195 -0.476571 16.54906345 0 19 C-0.66 19.33 -1.32 19.66 -2 20 C-2.0928125 19.1028125 -2.0928125 19.1028125 -2.1875 18.1875 C-3.3236757 15.12856542 -5.17330142 14.44958901 -8 13 C-6.93448551 10.51379951 -5.96162941 8.96282849 -4 7.0625 C-1.82536995 4.81991276 -0.97926774 2.93780321 0 0 Z " fill="#FFF4EC" transform="translate(169,68)"/>
<path d="M0 0 C4.8333472 -0.08333357 9.23692563 0.04738513 14 1 C14 1.99 14 2.98 14 4 C12 5.8125 12 5.8125 9 7 C6.15536678 6.65296526 3.75090764 5.88588551 1 5 C0.67 3.35 0.34 1.7 0 0 Z " fill="#EE6610" transform="translate(153,145)"/>
<path d="M0 0 C1.65 0 3.3 0 5 0 C5.33 1.65 5.66 3.3 6 5 C6.33 3.35 6.66 1.7 7 0 C8.32 0.33 9.64 0.66 11 1 C11.33 2.32 11.66 3.64 12 5 C12 3.35 12 1.7 12 0 C12.33 0 12.66 0 13 0 C13 1.65 13 3.3 13 5 C13.99 5 14.98 5 16 5 C16 5.66 16 6.32 16 7 C12.37 7 8.74 7 5 7 C4.34 5.68 3.68 4.36 3 3 C3.33 2.34 3.66 1.68 4 1 C3.34 1 2.68 1 2 1 C2 2.65 2 4.3 2 6 C1.34 6 0.68 6 0 6 C0 4.02 0 2.04 0 0 Z " fill="#682901" transform="translate(150,268)"/>
<path d="M0 0 C2.83967231 0 5.23735711 0.40267181 8 1 C7.67 2.65 7.34 4.3 7 6 C7.99 6 8.98 6 10 6 C10.33 5.01 10.66 4.02 11 3 C13.97 3.495 13.97 3.495 17 4 C16.67 5.65 16.34 7.3 16 9 C12.38970831 9 9.44193324 8.03907418 6 7 C6 6.01 6 5.02 6 4 C5.21625 4.20625 4.4325 4.4125 3.625 4.625 C2.75875 4.74875 1.8925 4.8725 1 5 C0.34 4.34 -0.32 3.68 -1 3 C-0.67 2.01 -0.34 1.02 0 0 Z " fill="#113349" transform="translate(83,237)"/>
<path d="M0 0 C4 0 4 0 5.75 1.5 C6.1625 1.995 6.575 2.49 7 3 C7.66 2.01 8.32 1.02 9 0 C9.66 0.66 10.32 1.32 11 2 C11.33 1.34 11.66 0.68 12 0 C14.31 0 16.62 0 19 0 C18.67 0.66 18.34 1.32 18 2 C17.01 1.67 16.02 1.34 15 1 C14.67 2.32 14.34 3.64 14 5 C13.01 5 12.02 5 11 5 C10.67 4.67 10.34 4.34 10 4 C9.67 4.66 9.34 5.32 9 6 C8.01 6 7.02 6 6 6 C5.67 5.34 5.34 4.68 5 4 C4.34 4.66 3.68 5.32 3 6 C2.01 6 1.02 6 0 6 C0 4.02 0 2.04 0 0 Z " fill="#592301" transform="translate(167,268)"/>
<path d="M0 0 C5.28 0 10.56 0 16 0 C15.67 1.32 15.34 2.64 15 4 C14.01 4.495 14.01 4.495 13 5 C13.99 5.66 14.98 6.32 16 7 C12.50765756 7.09978121 9.40562852 6.77842938 6 6 C6 4.68 6 3.36 6 2 C7.32 1.67 8.64 1.34 10 1 C7.69 1 5.38 1 3 1 C2.67 1.99 2.34 2.98 2 4 C1.34 2.68 0.68 1.36 0 0 Z " fill="#AB4200" transform="translate(176,267)"/>
<path d="M0 0 C2.625 0.25 2.625 0.25 4.4375 1.75 C4.829375 2.245 5.22125 2.74 5.625 3.25 C4.8125 5.1875 4.8125 5.1875 3.625 7.25 C2.635 7.58 1.645 7.91 0.625 8.25 C-2.0625 6.8125 -2.0625 6.8125 -4.375 5.25 C-3.26717391 0.34391304 -3.26717391 0.34391304 0 0 Z " fill="#E6EDF2" transform="translate(142.375,240.75)"/>
<path d="M0 0 C0.33 0.66 0.66 1.32 1 2 C2.0725 1.95875 3.145 1.9175 4.25 1.875 C9.46341463 2.04878049 9.46341463 2.04878049 12 4 C12.6015625 6.078125 12.6015625 6.078125 13 8 C6.82777121 6.75971762 0.93317878 5.10396411 -5 3 C-5 2.34 -5 1.68 -5 1 C-3.35 0.67 -1.7 0.34 0 0 Z " fill="#316D96" transform="translate(69,236)"/>
<path d="M0 0 C0.33 0.66 0.66 1.32 1 2 C0.67 2.99 0.34 3.98 0 5 C0.33 5.7425 0.66 6.485 1 7.25 C2.30888429 10.84943181 1.85168342 13.30937185 1 17 C0.34 17.33 -0.32 17.66 -1 18 C-1.66 17.67 -2.32 17.34 -3 17 C-3 17.66 -3 18.32 -3 19 C-3.66 19 -4.32 19 -5 19 C-4.690625 18.13375 -4.38125 17.2675 -4.0625 16.375 C-2.77697921 12.29158102 -1.96499352 8.54028526 -2.0625 4.25 C-2 2 -2 2 0 0 Z " fill="#FF7725" transform="translate(172,8)"/>
<path d="M0 0 C3.125 0.375 3.125 0.375 6 1 C6.33 2.32 6.66 3.64 7 5 C4.75 6.625 4.75 6.625 2 8 C-0.3125 7.1875 -0.3125 7.1875 -2 6 C-2 2 -2 2 0 0 Z " fill="#E9EFF3" transform="translate(173,241)"/>
<path d="M0 0 C1.98 0 3.96 0 6 0 C5.67 0.99 5.34 1.98 5 3 C5.99 3 6.98 3 8 3 C8.66 4.32 9.32 5.64 10 7 C9.46375 6.67 8.9275 6.34 8.375 6 C5.3838974 4.74058838 3.22270017 4.73144165 0 5 C-2.30230766 5.89831016 -2.30230766 5.89831016 -4 7 C-3.67 6.34 -3.34 5.68 -3 5 C-5.47266765 5.34444881 -5.47266765 5.34444881 -8 6 C-8.33 6.66 -8.66 7.32 -9 8 C-9.99 7.01 -10.98 6.02 -12 5 C-11.67 4.34 -11.34 3.68 -11 3 C-7.04 3 -3.08 3 1 3 C0.67 2.01 0.34 1.02 0 0 Z " fill="#6A95B2" transform="translate(156,236)"/>
<path d="M0 0 C3 1 3 1 4.75 3.5625 C6.35721869 7.9823514 5.75457021 10.39712172 5 15 C5.33 15.99 5.66 16.98 6 18 C5.34 18 4.68 18 4 18 C3.67 17.34 3.34 16.68 3 16 C2.34 16.99 1.68 17.98 1 19 C1.01160156 17.87980469 1.02320313 16.75960938 1.03515625 15.60546875 C1.04453622 14.13281417 1.0536362 12.66015778 1.0625 11.1875 C1.07087891 10.44951172 1.07925781 9.71152344 1.08789062 8.95117188 C1.10259828 5.70077932 1.03531702 3.10595105 0 0 Z " fill="#FF7E2F" transform="translate(147,7)"/>
<path d="M0 0 C5.45479185 0.56820748 9.91059256 1.94637945 15 4 C13.35 5.32 11.7 6.64 10 8 C10.33 8.66 10.66 9.32 11 10 C9.125 9.75 9.125 9.75 7 9 C5.8125 7.0625 5.8125 7.0625 5 5 C4.67 4.34 4.34 3.68 4 3 C3.01 3.495 3.01 3.495 2 4 C1.34 2.68 0.68 1.36 0 0 Z " fill="#184C6E" transform="translate(93,238)"/>
<path d="M0 0 C7.74468085 0.74468085 7.74468085 0.74468085 11 4 C11.33 4.99 11.66 5.98 12 7 C12.66 7.66 13.32 8.32 14 9 C9.55435877 9.42640253 7.61554425 8.41064126 4.1875 5.625 C3.39730469 4.99851562 2.60710937 4.37203125 1.79296875 3.7265625 C1.20128906 3.15679687 0.60960938 2.58703125 0 2 C0 1.34 0 0.68 0 0 Z " fill="#FF6F17" transform="translate(85,34)"/>
<path d="M0 0 C-0.33 0.99 -0.66 1.98 -1 3 C-1.99 3.33 -2.98 3.66 -4 4 C-5.55150626 5.60148169 -5.55150626 5.60148169 -7 7.5 C-9.08135132 10.14505064 -9.69921109 10.89973703 -13 12 C-15.62113708 12 -17.50935112 11.68707555 -20 11 C-19.14728516 10.67128906 -19.14728516 10.67128906 -18.27734375 10.3359375 C-13.2461792 8.26971633 -9.38911724 5.98510948 -5.41015625 2.26953125 C-3.57390273 0.61639443 -2.49227899 0 0 0 Z " fill="#FF7828" transform="translate(234,35)"/>
<path d="M0 0 C0.66 1.32 1.32 2.64 2 4 C2.99 4 3.98 4 5 4 C5.33 3.01 5.66 2.02 6 1 C6.66 1.66 7.32 2.32 8 3 C8.66 2.67 9.32 2.34 10 2 C11.66619446 1.9603287 13.33391013 1.95615553 15 2 C14 5 14 5 12 6 C9.11087268 5.91061582 6.25606745 5.765952 3.375 5.5625 C2.57320312 5.51029297 1.77140625 5.45808594 0.9453125 5.40429688 C-1.03679103 5.27451629 -3.01844499 5.13790265 -5 5 C-4.67 4.34 -4.34 3.68 -4 3 C-3.01 3 -2.02 3 -1 3 C-0.67 2.01 -0.34 1.02 0 0 Z " fill="#BB4A00" transform="translate(171,270)"/>
<path d="M0 0 C0.66 0 1.32 0 2 0 C1.58669586 5.99291003 0.68096635 9.25036599 -3 14 C-4.32 13.67 -5.64 13.34 -7 13 C-6.38125 12.319375 -5.7625 11.63875 -5.125 10.9375 C-2.76828514 7.67968828 -1.96790791 4.87163165 -1 1 C-0.67 0.67 -0.34 0.34 0 0 Z " fill="#FF7A2A" transform="translate(194,14)"/>
<path d="M0 0 C-0.33 1.65 -0.66 3.3 -1 5 C-1.66 5 -2.32 5 -3 5 C-3 4.34 -3 3.68 -3 3 C-4.79379098 3.44994757 -6.58498928 3.91024143 -8.375 4.375 C-9.87160156 4.75785156 -9.87160156 4.75785156 -11.3984375 5.1484375 C-14.12541015 5.82404319 -14.12541015 5.82404319 -16 8 C-16 7.34 -16 6.68 -16 6 C-16.99 5.67 -17.98 5.34 -19 5 C-16.58570231 4.15919981 -14.16896007 3.32718598 -11.75 2.5 C-10.72712891 2.14228516 -10.72712891 2.14228516 -9.68359375 1.77734375 C-6.23586997 0.60578713 -3.68297096 0 0 0 Z " fill="#DA6623" transform="translate(248,230)"/>
<path d="M0 0 C3.96 0 7.92 0 12 0 C11.67 1.98 11.34 3.96 11 6 C9.68 4.68 8.36 3.36 7 2 C6.34 2.66 5.68 3.32 5 4 C5 3.01 5 2.02 5 1 C4.34 1 3.68 1 3 1 C3 2.65 3 4.3 3 6 C2.01 6 1.02 6 0 6 C0 4.02 0 2.04 0 0 Z " fill="#D65400" transform="translate(164,267)"/>
<path d="M0 0 C2.64 0.33 5.28 0.66 8 1 C7.67 2.98 7.34 4.96 7 7 C5.35 7 3.7 7 2 7 C1.34 4.69 0.68 2.38 0 0 Z " fill="#EF6D1E" transform="translate(156,154)"/>
<path d="M0 0 C3.09438268 0.91995161 4.71026629 1.63783286 6.75 4.1875 C8.20698822 7.46572351 8.65129616 10.44322079 9 14 C7.68 13.67 6.36 13.34 5 13 C4.34 9.37 3.68 5.74 3 2 C2.01 1.67 1.02 1.34 0 1 C0 0.67 0 0.34 0 0 Z " fill="#FF7B2D" transform="translate(124,13)"/>
<path d="M0 0 C-3.48720616 4.3590077 -6.72760915 4.94552183 -12 6 C-11.77734375 4.11328125 -11.77734375 4.11328125 -11 2 C-9.00390625 0.91796875 -9.00390625 0.91796875 -6.5625 0.1875 C-5.75941406 -0.06644531 -4.95632812 -0.32039062 -4.12890625 -0.58203125 C-2 -1 -2 -1 0 0 Z " fill="#F9E9E0" transform="translate(205,241)"/>
<path d="M0 0 C0 0.99 0 1.98 0 3 C1.65 3.33 3.3 3.66 5 4 C5 4.33 5 4.66 5 5 C0.45194365 5.17835515 -2.8794254 4.99785435 -7 3 C-7 2.01 -7 1.02 -7 0 C-3.98968256 -0.93423645 -3.13349732 -1.04449911 0 0 Z " fill="#1F608B" transform="translate(89,241)"/>
<path d="M0 0 C1.32 0 2.64 0 4 0 C4.66 0.66 5.32 1.32 6 2 C6.66 2.33 7.32 2.66 8 3 C6.68 3.33 5.36 3.66 4 4 C4 4.66 4 5.32 4 6 C2.68 6 1.36 6 0 6 C-0.38218767 4.34385343 -0.71395102 2.67542976 -1 1 C-0.67 0.67 -0.34 0.34 0 0 Z " fill="#843401" transform="translate(216,241)"/>
<path d="M0 0 C1.98 0 3.96 0 6 0 C6 1.98 6 3.96 6 6 C4.02 6 2.04 6 0 6 C0.33 5.34 0.66 4.68 1 4 C0.60061233 1.90178785 0.60061233 1.90178785 0 0 Z " fill="#7A3001" transform="translate(127,268)"/>
<path d="M0 0 C0.28875 0.61875 0.5775 1.2375 0.875 1.875 C1.93720042 4.13325765 1.93720042 4.13325765 4 6 C3.625 8.625 3.625 8.625 3 11 C2.6596875 10.1028125 2.6596875 10.1028125 2.3125 9.1875 C0.66188867 6.43648112 -1.1972081 5.47515363 -4 4 C-3 2 -3 2 0 0 Z " fill="#FFEDE2" transform="translate(165,77)"/>
<path d="M0 0 C0.33 0 0.66 0 1 0 C1 2.97 1 5.94 1 9 C-0.32 9.33 -1.64 9.66 -3 10 C-2.25 3.375 -2.25 3.375 0 0 Z " fill="#FF731C" transform="translate(182,13)"/>
<path d="M0 0 C4.84824868 0.41556417 6.88036862 2.37448245 10 6 C11.375 8.1875 11.375 8.1875 12 10 C11.67 10.66 11.34 11.32 11 12 C10.34 12 9.68 12 9 12 C8.62875 10.741875 8.2575 9.48375 7.875 8.1875 C6.58463012 4.66547593 6.17727896 4.11123386 2.8125 2 C1.884375 1.67 0.95625 1.34 0 1 C0 0.67 0 0.34 0 0 Z " fill="#FF721F" transform="translate(101,22)"/>
<path d="M0 0 C2.69282475 4.03923713 3.13300939 6.95536152 3.0625 11.75 C3.05347656 12.54921875 3.04445312 13.3484375 3.03515625 14.171875 C3.01775391 15.07679687 3.01775391 15.07679687 3 16 C2.67 16 2.34 16 2 16 C2 14.02 2 12.04 2 10 C1.34 10 0.68 10 0 10 C-0.33 10.66 -0.66 11.32 -1 12 C-0.67 8.04 -0.34 4.08 0 0 Z " fill="#FF8034" transform="translate(160,11)"/>
<path d="M0 0 C0.66 1.32 1.32 2.64 2 4 C-0.3125 5.5625 -0.3125 5.5625 -3 7 C-3.99 6.67 -4.98 6.34 -6 6 C-6.6875 3.9375 -6.6875 3.9375 -7 2 C-5.68 1.67 -4.36 1.34 -3 1 C-2.67 1.99 -2.34 2.98 -2 4 C-2 3.01 -2 2.02 -2 1 C-1.34 0.67 -0.68 0.34 0 0 Z " fill="#6B2A01" transform="translate(213,243)"/>
<path d="M0 0 C-2.83430453 3.2542015 -4.68607774 4.5206753 -9 5 C-9 4.34 -9 3.68 -9 3 C-9.66 2.67 -10.32 2.34 -11 2 C-9.54494642 1.47007308 -8.08581873 0.9513211 -6.625 0.4375 C-5.81289062 0.14746094 -5.00078125 -0.14257812 -4.1640625 -0.44140625 C-2 -1 -2 -1 0 0 Z " fill="#F7E3D7" transform="translate(242,229)"/>
<path d="M0 0 C0 0.99 0 1.98 0 3 C-2.97 3.66 -5.94 4.32 -9 5 C-8.67 3.68 -8.34 2.36 -8 1 C-2.71910112 -1.35955056 -2.71910112 -1.35955056 0 0 Z " fill="#F7E1D3" transform="translate(264,222)"/>
<path d="M0 0 C0.99 0.33 1.98 0.66 3 1 C3.33 2.32 3.66 3.64 4 5 C-0.95 6.485 -0.95 6.485 -6 8 C-5.34 6.35 -4.68 4.7 -4 3 C-3.67 3.66 -3.34 4.32 -3 5 C-2.34 4.67 -1.68 4.34 -1 4 C-0.34786708 1.97536745 -0.34786708 1.97536745 0 0 Z " fill="#762E01" transform="translate(248,230)"/>
<path d="M0 0 C4.53786224 2.26893112 5.94678157 4.09866534 9 8 C7.68 8.33 6.36 8.66 5 9 C3.35 6.03 1.7 3.06 0 0 Z " fill="#FF7B2C" transform="translate(114,19)"/>
<path d="M0 0 C-5.22771463 3.04157942 -8.92671312 4.50610724 -15 4 C-12.19836511 2.13224341 -10.11958197 1.27321694 -6.9375 0.3125 C-6.05964844 0.04050781 -5.18179688 -0.23148438 -4.27734375 -0.51171875 C-2 -1 -2 -1 0 0 Z " fill="#DA6826" transform="translate(228,237)"/>
<path d="M0 0 C1.32 0 2.64 0 4 0 C4 0.66 4 1.32 4 2 C4.99 2.33 5.98 2.66 7 3 C6.01 4.485 6.01 4.485 5 6 C3.35 5.67 1.7 5.34 0 5 C0 3.35 0 1.7 0 0 Z " fill="#1C557B" transform="translate(79,234)"/>
<path d="M0 0 C3.0831351 1.19899698 6.06279492 2.47700477 9 4 C8.67 5.32 8.34 6.64 8 8 C6.85073734 7.04578192 5.70569459 6.08647955 4.5625 5.125 C3.92441406 4.59132813 3.28632812 4.05765625 2.62890625 3.5078125 C1 2 1 2 0 0 Z " fill="#FF792B" transform="translate(94,28)"/>
<path d="M0 0 C1.32 0 2.64 0 4 0 C4.12375 0.639375 4.2475 1.27875 4.375 1.9375 C4.684375 2.9584375 4.684375 2.9584375 5 4 C5.66 4.33 6.32 4.66 7 5 C5.02 5 3.04 5 1 5 C1 4.01 1 3.02 1 2 C0.34 1.67 -0.32 1.34 -1 1 C-0.67 0.67 -0.34 0.34 0 0 Z " fill="#AA4200" transform="translate(228,236)"/>
<path d="M0 0 C-0.33 1.98 -0.66 3.96 -1 6 C-2.32 6 -3.64 6 -5 6 C-5 5.34 -5 4.68 -5 4 C-4.01 4 -3.02 4 -2 4 C-2 3.34 -2 2.68 -2 2 C-3.98 2 -5.96 2 -8 2 C-8 1.67 -8 1.34 -8 1 C-5.23735711 0.40267181 -2.83967231 0 0 0 Z " fill="#EF691A" transform="translate(169,137)"/>
<path d="M0 0 C0.66 0.33 1.32 0.66 2 1 C0.7934375 2.051875 0.7934375 2.051875 -0.4375 3.125 C-3.23433811 6.26291593 -3.71308751 7.88758763 -4 12 C-5.125 10.3125 -5.125 10.3125 -6 8 C-5.0230233 3.99439553 -3.44788426 2.18366003 0 0 Z " fill="#FF7A2D" transform="translate(215,23)"/>
<path d="M0 0 C-1.04874998 2.62187494 -1.64931313 3.79371361 -4.125 5.25 C-4.74375 5.4975 -5.3625 5.745 -6 6 C-6 5.34 -6 4.68 -6 4 C-6.66 3.67 -7.32 3.34 -8 3 C-3.375 0 -3.375 0 0 0 Z " fill="#FF7727" transform="translate(224,31)"/>
<path d="M0 0 C-0.33 1.65 -0.66 3.3 -1 5 C-1.99 5 -2.98 5 -4 5 C-4.33 3.68 -4.66 2.36 -5 1 C-3 0 -3 0 0 0 Z " fill="#913901" transform="translate(239,234)"/>
<path d="M0 0 C1.98 0 3.96 0 6 0 C6 0.66 6 1.32 6 2 C4.68 2 3.36 2 2 2 C2.33 2.99 2.66 3.98 3 5 C2.01 5 1.02 5 0 5 C0 3.35 0 1.7 0 0 Z " fill="#EB732C" transform="translate(145,108)"/>
<path d="M0 0 C-1.875 4.75 -1.875 4.75 -3 7 C-3.66 7 -4.32 7 -5 7 C-5.1875 4.625 -5.1875 4.625 -5 2 C-2 0 -2 0 0 0 Z " fill="#FFEBDE" transform="translate(176,24)"/>
<path d="M0 0 C2.83328987 2.83328987 3.7191375 4.35446828 5 8 C4.34 8 3.68 8 3 8 C2.67 8.66 2.34 9.32 2 10 C1.34 6.7 0.68 3.4 0 0 Z " fill="#FF8941" transform="translate(136,12)"/>
<path d="M0 0 C1.32 0.33 2.64 0.66 4 1 C3.67 2.65 3.34 4.3 3 6 C2.01 6 1.02 6 0 6 C0 4.02 0 2.04 0 0 Z " fill="#DA5600" transform="translate(140,267)"/>
<path d="M0 0 C1.32 0 2.64 0 4 0 C3.67 1.65 3.34 3.3 3 5 C2.34 5 1.68 5 1 5 C1 4.34 1 3.68 1 3 C0.34 3 -0.32 3 -1 3 C-0.67 2.01 -0.34 1.02 0 0 Z " fill="#BC4F0C" transform="translate(244,230)"/>
<path d="M0 0 C0.66 0.33 1.32 0.66 2 1 C1.8125 2.875 1.8125 2.875 1 5 C-1.5625 6.25 -1.5625 6.25 -4 7 C-3.39816251 4.97954558 -2.72693904 2.97888961 -2 1 C-1.34 0.67 -0.68 0.34 0 0 Z " fill="#FFE6D5" transform="translate(222,46)"/>
<path d="M0 0 C2.31 0.33 4.62 0.66 7 1 C6.34 2.32 5.68 3.64 5 5 C2.5 3.625 2.5 3.625 0 2 C0 1.34 0 0.68 0 0 Z " fill="#FF7827" transform="translate(85,34)"/>
<path d="M0 0 C2.76276177 0.52268466 5.3260876 1.10869587 8 2 C7.67 3.32 7.34 4.64 7 6 C5.83054208 5.19152271 4.66449539 4.37810888 3.5 3.5625 C2.8503125 3.11003906 2.200625 2.65757813 1.53125 2.19140625 C1.0259375 1.79824219 0.520625 1.40507813 0 1 C0 0.67 0 0.34 0 0 Z " fill="#FF7525" transform="translate(79,42)"/>
<path d="M0 0 C0.66 0.33 1.32 0.66 2 1 C1.45276317 4.37462715 0.9451 6.08235 -1 9 C-2.0326802 6.21176345 -2.04509293 5.1322726 -1.0625 2.25 C-0.711875 1.5075 -0.36125 0.765 0 0 Z " fill="#FF8F45" transform="translate(160,56)"/>
<path d="M0 0 C0.33 0.66 0.66 1.32 1 2 C-1.25 3.625 -1.25 3.625 -4 5 C-6.3125 4.1875 -6.3125 4.1875 -8 3 C-5.36 2.01 -2.72 1.02 0 0 Z " fill="#FF843C" transform="translate(240,42)"/>
</svg>
